<svg width="24" height="20" viewBox="0 0 24 20" fill="none" xmlns="http://www.w3.org/2000/svg">
<path d="M23.7005 1.6022C23.666 1.69414 23.6683 1.79297 23.6476 1.88721C23.4936 2.60434 23.3419 3.32147 23.1879 4.03859C22.9328 5.2361 22.6777 6.43361 22.4226 7.63112C22.1192 9.05618 21.8134 10.4789 21.5101 11.904C21.2365 13.1912 20.9607 14.476 20.6872 15.7632C20.5102 16.5929 20.3332 17.4204 20.1539 18.2501C20.1126 18.4432 20.0436 18.6317 19.9471 18.8064C19.6919 19.273 19.2828 19.4453 18.7703 19.3051C18.4829 19.227 18.2347 19.0753 17.9957 18.9006C16.3477 17.6893 14.695 16.4803 13.0447 15.2713C12.9942 15.2345 12.9666 15.2299 12.9183 15.2782C12.0518 16.1102 11.183 16.9377 10.3164 17.7697C10.1257 17.9513 9.91879 18.1007 9.65447 18.1467C9.57402 18.1605 9.49357 18.1697 9.41313 18.1697C9.37865 18.1697 9.36946 18.1605 9.37175 18.1237C9.41083 17.5836 9.4499 17.0411 9.48898 16.501C9.51426 16.1378 9.53954 15.777 9.56483 15.4138C9.6016 14.9012 9.63838 14.3887 9.67515 13.8761C9.69584 13.575 9.72112 13.2762 9.73491 12.9751C9.73951 12.8786 9.76709 12.8096 9.84294 12.743C11.5139 11.2466 13.1826 9.74803 14.8513 8.24942C16.2327 7.01053 17.6118 5.76935 18.9932 4.53047C19.1656 4.37647 19.338 4.22017 19.5104 4.06617C19.5701 4.01331 19.6276 3.96044 19.6621 3.88689C19.7149 3.78116 19.6805 3.69612 19.5678 3.65934C19.4575 3.62257 19.3449 3.63866 19.2368 3.66624C19.1173 3.69612 19.0093 3.74898 18.9036 3.81334C16.5476 5.28667 14.1917 6.7623 11.838 8.23563C10.1693 9.27914 8.50063 10.3249 6.83193 11.3685C6.79745 11.3891 6.76987 11.4029 6.7262 11.3914C4.99084 10.8513 3.25319 10.3112 1.51783 9.76871C1.31097 9.70436 1.1179 9.61472 0.950106 9.46991C0.690377 9.24696 0.665094 8.96425 0.88345 8.69992C1.07193 8.47007 1.32246 8.32527 1.58908 8.21034C2.09935 7.98969 2.6234 7.80581 3.14286 7.60584C6.2619 6.40833 9.37865 5.21542 12.4954 4.0225C15.0835 3.03186 17.6716 2.04121 20.2574 1.05056C20.9078 0.802326 21.5583 0.551791 22.2111 0.305853C22.4524 0.213914 22.703 0.181735 22.9581 0.246092C23.3511 0.344927 23.5626 0.61385 23.6568 0.9931C23.6752 1.07125 23.6867 1.1517 23.7028 1.22984C23.7005 1.35166 23.7005 1.47808 23.7005 1.6022Z" fill="#6B7073"/>
</svg>
