<svg width="24" height="24" viewBox="0 0 24 24" fill="none" xmlns="http://www.w3.org/2000/svg">
<g clip-path="url(#clip0_8401_33)">
<path d="M13.9157 8.27977C13.9157 9.12102 13.9111 9.96456 13.918 10.8058C13.9203 10.9667 13.9409 11.1345 13.9892 11.2885C14.0743 11.5574 14.2581 11.6471 14.5202 11.5436C14.6719 11.4839 14.819 11.3896 14.9477 11.2885C15.4304 10.9046 15.8096 10.4266 16.1682 9.93009C17.122 8.61305 17.8828 7.18569 18.531 5.69858C18.6919 5.32852 18.9195 5.03661 19.3332 4.94697C19.4458 4.92169 19.563 4.9102 19.678 4.9102C20.5031 4.9079 21.3306 4.9056 22.1557 4.9102C22.289 4.9102 22.427 4.92628 22.558 4.95846C22.8775 5.04121 23.0292 5.28255 22.9763 5.60893C22.9073 6.01806 22.751 6.39731 22.5718 6.76737C22.1281 7.68447 21.6018 8.55329 21.0525 9.41063C20.5928 10.1301 20.117 10.838 19.6504 11.5528C19.563 11.6861 19.4849 11.824 19.409 11.9642C19.2964 12.1688 19.2872 12.3872 19.4205 12.5779C19.5791 12.8055 19.7469 13.033 19.9446 13.2261C20.7008 13.9731 21.4271 14.7454 22.096 15.5706C22.4936 16.0601 22.8958 16.5474 23.19 17.1083C23.3027 17.3243 23.3946 17.5611 23.4452 17.7978C23.5417 18.2529 23.2958 18.577 22.8338 18.6505C22.7166 18.6689 22.5947 18.6758 22.4752 18.6758C21.6799 18.6781 20.887 18.6712 20.0917 18.6804C19.6987 18.685 19.3562 18.5655 19.0804 18.2943C18.754 17.9725 18.4414 17.6369 18.1334 17.2967C17.4576 16.5497 16.7727 15.8142 15.9728 15.1959C15.6786 14.9684 15.3729 14.7615 15.0235 14.6213C14.8098 14.5362 14.5914 14.5133 14.3662 14.5385C14.1202 14.5661 13.9984 14.6696 13.9547 14.9155C13.9272 15.0764 13.9134 15.2396 13.9134 15.4028C13.9088 16.1383 13.9111 16.8715 13.9111 17.607C13.9111 17.7036 13.9134 17.8001 13.8996 17.8943C13.849 18.2644 13.6398 18.4621 13.2008 18.5563C12.725 18.6597 12.2424 18.6712 11.7597 18.6413C9.97836 18.5333 8.42918 17.8323 7.0271 16.7681C5.96061 15.959 5.09178 14.9661 4.33558 13.8674C3.20702 12.2309 2.20029 10.5277 1.4165 8.7004C1.04645 7.83846 0.717763 6.96274 0.533884 6.03875C0.492511 5.82959 0.481019 5.61123 0.49481 5.39977C0.508601 5.15383 0.671793 5.00443 0.901641 4.93778C1.01657 4.9056 1.13609 4.88491 1.25561 4.88491C2.14282 4.88032 3.02774 4.88261 3.91496 4.88261C4.33098 4.88261 4.64128 5.06419 4.80677 5.44804C4.94008 5.75834 5.05041 6.08012 5.16993 6.39731C5.77213 8.00396 6.50305 9.54624 7.45002 10.9805C7.76262 11.454 8.0959 11.9137 8.52112 12.2952C8.64983 12.4102 8.79694 12.5159 8.95094 12.5917C9.24514 12.7342 9.48648 12.6101 9.55084 12.2906C9.58302 12.132 9.59911 11.9665 9.59911 11.8034C9.6037 10.53 9.6083 9.25663 9.59911 7.98327C9.59451 7.29832 9.39224 6.67313 8.94864 6.13529C8.87049 6.04105 8.79694 5.93992 8.72798 5.83878C8.59467 5.63881 8.56019 5.42276 8.67741 5.2067C8.79923 4.98145 9.0015 4.88491 9.25204 4.88261C9.81057 4.88031 10.3691 4.88261 10.9276 4.88261C11.6631 4.88261 12.3964 4.88261 13.1319 4.88261C13.2123 4.88261 13.2905 4.88721 13.3709 4.8987C13.6375 4.93548 13.8076 5.09407 13.8628 5.3538C13.8973 5.517 13.9134 5.68478 13.9134 5.85257C13.918 6.65934 13.9157 7.47071 13.9157 8.27977Z" fill="#6B7073"/>
</g>
<defs>
<clipPath id="clip0_8401_33">
<rect width="22.9848" height="22.9848" fill="white" transform="translate(0.487793 0.287842)"/>
</clipPath>
</defs>
</svg>
